<?xml version="1.0" encoding="utf-8"?>
<!-- Generator: Adobe Illustrator 24.1.2, SVG Export Plug-In . SVG Version: 6.00 Build 0)  -->
<svg version="1.1" xmlns="http://www.w3.org/2000/svg" xmlns:xlink="http://www.w3.org/1999/xlink" x="0px" y="0px"
	 viewBox="0 0 1930.75 420.97" style="enable-background:new 0 0 1930.75 420.97;" xml:space="preserve">
<style type="text/css">
	.st0{font-family:'Franchise-Regular';}
	.st1{font-size:497.3914px;}
	.st2{fill:#FEFEFE;}
	.st3{fill:#464646;}
	.st4{fill:#6D6D6D;}
</style>
<g id="Camada_1">
</g>
<g id="Camada_2">
	<text transform="matrix(1 0 0 1 480.8657 368.6084)" class="st0 st1">Burguer</text>
	<g>
		<path class="st2" d="M4.12,202.57c1.77-0.04,2.1,1.5,2.73,2.6c2.96,5.17,7.46,7.55,13.35,7.52c1.36,0,2.69,0.02,4.05,0.02h373.91
			c1.48,0,2.96,0.02,4.44-0.02c8.75-0.29,14.4-5.82,14.42-14.6c0.02-18.3-2.82-36.23-8.02-53.75c-7.41-25.01-19.51-47.65-36.35-67.5
			c-30.82-36.3-69.73-58.74-116.92-66.35c-3.99-0.65-7.97-1.26-12-1.73c-1.34-0.14-3.14,0.23-3.41-1.92
			c2.73,1.68,5.89,1.01,8.82,1.43c65.06,9.21,113.72,42.57,145.92,99.65c15.27,27.07,22.46,56.57,23.13,87.65
			c0.29,12.72-5.24,18.32-17.89,18.32c-125.72,0-251.44-0.05-377.16,0.13C14.02,214.01,7.57,211.21,4.12,202.57z"/>
		<path class="st2" d="M416.82,257.74c-0.42-6.96-5.73-12.16-12.86-12.58c-1.48-0.07-2.96-0.05-4.44-0.05H22.77
			c-1.21,0-2.42,0.04-3.63,0.02c-4.99-0.04-8.82,2.01-11.56,6.18c-0.85,1.28-1.43,3.04-3.45,3.04c1.26-0.6,1.16-2.01,1.75-3
			c2.66-4.46,6.36-7.25,11.64-7.66c1.73-0.13,3.49-0.16,5.24-0.16c125.63-0.02,251.24-0.02,376.87-0.02c2.69,0,5.4-0.13,8.02,0.63
			c6.81,1.95,11.33,8.8,10.5,15.79c-0.85,7.12-6.61,12.59-13.75,13.01c-1.61,0.11-3.23,0.07-4.86,0.07
			c-125.48,0-250.97-0.05-376.45,0.13c-9.14,0-15.61-2.76-18.95-11.51c1.9,0.05,2.28,1.73,2.96,2.95c2.57,4.52,6.56,6.58,11.58,6.99
			c1.75,0.14,3.51,0.09,5.26,0.09h374.3c2.29,0,4.59,0.09,6.87-0.23C412.26,270.35,417.22,264.57,416.82,257.74z"/>
		<path class="st2" d="M417.47,356.89c-4.37,34.71-34.2,62.26-69.15,63.91c-1.61,0.09-3.23,0.14-4.84,0.14
			c-88.16,0-176.29,0.05-264.45-0.02c-33.1-0.04-60.37-19.66-71.13-50.93c-1.54-4.5-2.53-9.16-3.78-13.75
			c2.55,0.54,2.17,2.87,2.51,4.52c2.67,12.5,7.93,23.71,16.3,33.44c11.73,13.64,26.56,21.66,44.23,24.66
			c4.12,0.7,8.28,0.92,12.47,0.92c87.87-0.04,175.75-0.02,263.62-0.02c38.83,0,70.5-28.84,73.59-67.54
			c0.94-11.65,0.45-23.43,0.09-35.16c-0.25-7.75-5.93-12.94-13.75-12.99c-19.42-0.11-38.83-0.02-58.23-0.04
			c-4.26,0-7.81,1.68-11.13,4.17c-14.22,10.7-28.46,21.34-42.7,32.02c-5.91,4.44-6.2,4.43-12.21-0.07
			c-14.04-10.5-28.08-20.96-42.03-31.58c-4.3-3.27-8.85-4.61-14.24-4.59c-66.85,0.09-133.69,0.09-200.54-0.02
			c-7.1,0-12.72,1.81-15.88,8.64c-0.38,0.83-0.89,1.73-2.1,1.57c3.18-8.6,9.43-11.62,18.47-11.58c66.58,0.2,133.16,0.14,199.75,0.04
			c5.96-0.02,10.95,1.63,15.67,5.24c14.65,11.18,29.52,22.1,44.18,33.3c2.4,1.84,3.81,1.61,6.05-0.11
			c15.01-11.4,30.16-22.64,45.19-34c3.92-2.96,8.13-4.43,13.08-4.41c18.34,0.11,36.66,0.02,55,0.05
			c10.99,0.02,16.84,5.75,16.71,16.64C418.05,331.87,419.04,344.41,417.47,356.89z"/>
		<path d="M152.01,117.91c0,2.69,0.16,5.4-0.04,8.08c-0.61,7.82-6.5,13.52-14.18,13.88c-7.55,0.36-14.06-4.95-15.07-12.81
			c-0.8-6.13-0.78-12.38-0.02-18.52c1.01-8.08,7.39-13.15,15.39-12.81c7.53,0.33,13.39,6.22,13.89,14.11
			c0.18,2.69,0.04,5.38,0.04,8.08C152.01,117.91,152.01,117.91,152.01,117.91z"/>
		<path d="M225.75,126.67c-0.56,7.52-7.12,13.32-14.71,13.23c-7.46-0.11-13.97-5.78-14.38-13.12c-0.33-6.03-0.34-12.11,0.02-18.14
			c0.43-7.34,6.96-12.92,14.45-12.95c7.52-0.02,13.97,5.55,14.6,12.85c0.25,3.07,0.04,6.18,0.04,9.27h0.02
			C225.78,120.76,225.96,123.74,225.75,126.67z"/>
		<path d="M299.61,127.28c-1.03,7.62-7.46,12.85-14.85,12.59c-7.66-0.25-13.68-5.93-14.33-13.71c-0.23-2.82-0.04-5.66-0.04-8.47
			c0-2.84-0.22-5.67,0.05-8.47c0.7-7.68,6.63-13.26,14.06-13.52c7.82-0.23,14.11,4.77,15.12,12.67
			C300.44,114.63,300.46,121.01,299.61,127.28z"/>
		<path d="M395.05,107.91c-16.15-28.63-36.44-51.29-60.86-67.93c0,0-38.26-26.03-85.06-31.72c-7.1-0.86-15.49-1.39-16.1-1.43
			c-25.42-1.57-46.43,0.34-58.9,1.53c-3.16,0.3-5.75,0.55-6.47,0.66C87.4,21.19,22.69,83.27,7.63,162.8
			c-1.16,6.07-1.77,12.25-2.66,18.36c-0.11,0.74,0.25,1.68-0.85,1.99v4.05c0.43,0.4,0.43,0.89,0.43,1.37
			c-0.02,0.07-0.02,0.14-0.02,0.22c0,0.11,0.02,0.22,0.02,0.33c-0.16,0.98,0.34,2.04-0.43,2.94v10.52
			c3.45,8.64,9.9,11.44,19.01,11.44c125.72-0.18,251.44-0.13,377.16-0.13c12.65,0,18.18-5.6,17.89-18.32
			C417.5,164.49,410.31,134.98,395.05,107.91z M34.93,179.63c5.2-39.57,22.22-73.14,51.51-100.15
			c24.57-22.66,53.55-36.9,86.87-41.05c27.5-3.43,55.18-3.69,82.55,0.94c25.75,4.35,48.97,15.18,69.6,31.22
			c22.89,17.82,39.93,40.18,50.99,67.03c5.78,14,9.31,28.58,11.17,43.62c0.47,3.85-1.75,3.04-3.78,3.04H210.79
			c-57.29,0-114.59-0.05-171.87,0.11C34.8,184.4,34.49,183.02,34.93,179.63z"/>
		<path d="M418.21,319.35c0.13-10.9-5.73-16.62-16.71-16.64c-18.34-0.04-36.66,0.05-55-0.05c-4.95-0.02-9.16,1.45-13.08,4.41
			c-15.03,11.36-30.17,22.6-45.19,34c-2.24,1.72-3.65,1.95-6.05,0.11c-14.65-11.2-29.52-22.12-44.18-33.3
			c-4.72-3.61-9.7-5.26-15.67-5.24c-66.58,0.11-133.16,0.16-199.75-0.04c-9.03-0.04-15.29,2.98-18.47,11.58v42.06
			c1.25,4.59,2.24,9.25,3.78,13.75c10.77,31.28,38.03,50.9,71.13,50.93c88.16,0.07,176.29,0.02,264.45,0.02
			c1.61,0,3.23-0.05,4.84-0.14c34.94-1.64,64.77-29.2,69.15-63.91C419.04,344.41,418.05,331.87,418.21,319.35z M386.88,359.33
			c-5.24,18-21.23,31.26-39.91,31.73c-20.2,0.52-40.44,0.25-60.66,0.27c-25.06,0.02-50.14,0-75.2,0c-43.69,0-87.36,0.04-131.03-0.02
			c-21.05-0.02-37.31-11.22-43.92-29.83c-3.2-9.03-2.2-18.38-2.4-27.63c-0.02-1.14,0.47-1.77,1.68-1.72c0.94,0.04,1.9,0,2.84,0
			c59.57,0,119.16,0.02,178.73-0.05c2.69,0,4.82,0.63,7.01,2.29c16.64,12.59,33.37,25.08,50.07,37.6c8,6,14.11,6.02,22.03,0.09
			c16.91-12.68,33.84-25.37,50.72-38.09c1.55-1.17,3.05-1.92,5.11-1.9c11.18,0.11,22.37,0.13,33.55,0c2.48-0.04,3.29,0.65,3.18,3.16
			C388.36,343.29,389.19,351.38,386.88,359.33z"/>
		<path d="M418.14,259.92c-0.85,7.12-6.61,12.59-13.75,13.01c-1.61,0.11-3.23,0.07-4.86,0.07c-125.48,0-250.97-0.05-376.45,0.13
			c-9.14,0-15.61-2.76-18.95-11.51v-7.28c1.26-0.6,1.16-2.01,1.75-3c2.66-4.46,6.36-7.25,11.64-7.66c1.73-0.13,3.49-0.16,5.24-0.16
			c125.63-0.02,251.24-0.02,376.87-0.02c2.69,0,5.4-0.13,8.02,0.63C414.45,246.08,418.97,252.93,418.14,259.92z"/>
		<path class="st3" d="M4.82,188.76c0.05,1.16,0.52,2.4-0.7,3.29c0-1.08,0-2.16,0-3.24C4.34,188.48,4.57,188.45,4.82,188.76z"/>
		<path class="st4" d="M4.82,188.76c-0.23,0.03-0.46,0.04-0.7,0.06c0-0.54,0-1.08,0-1.62C5.05,187.41,4.9,188.1,4.82,188.76z"/>
		<path class="st2" d="M152.01,117.91c0,2.69,0.16,5.4-0.04,8.08c-0.61,7.82-6.5,13.52-14.18,13.88
			c-7.55,0.36-14.06-4.95-15.07-12.81c-0.8-6.13-0.78-12.38-0.02-18.52c1.01-8.08,7.39-13.15,15.39-12.81
			c7.53,0.33,13.39,6.22,13.89,14.11c0.18,2.69,0.04,5.38,0.04,8.08C152.01,117.91,152.01,117.91,152.01,117.91z"/>
		<path class="st2" d="M225.75,126.67c-0.56,7.52-7.12,13.32-14.71,13.23c-7.46-0.11-13.97-5.78-14.38-13.12
			c-0.33-6.03-0.34-12.11,0.02-18.14c0.43-7.34,6.96-12.92,14.45-12.95c7.52-0.02,13.97,5.55,14.6,12.85
			c0.25,3.07,0.04,6.18,0.04,9.27h0.02C225.78,120.76,225.96,123.74,225.75,126.67z"/>
		<path class="st2" d="M299.61,127.28c-1.03,7.62-7.46,12.85-14.85,12.59c-7.66-0.25-13.68-5.93-14.33-13.71
			c-0.23-2.82-0.04-5.66-0.04-8.47c0-2.84-0.22-5.67,0.05-8.47c0.7-7.68,6.63-13.26,14.06-13.52c7.82-0.23,14.11,4.77,15.12,12.67
			C300.44,114.63,300.46,121.01,299.61,127.28z"/>
		<path d="M152.01,117.91c0,2.69,0.16,5.4-0.04,8.08c-0.61,7.82-6.5,13.52-14.18,13.88c-7.55,0.36-14.06-4.95-15.07-12.81
			c-0.8-6.13-0.78-12.38-0.02-18.52c1.01-8.08,7.39-13.15,15.39-12.81c7.53,0.33,13.39,6.22,13.89,14.11
			c0.18,2.69,0.04,5.38,0.04,8.08C152.01,117.91,152.01,117.91,152.01,117.91z"/>
		<path d="M299.61,127.28c-1.03,7.62-7.46,12.85-14.85,12.59c-7.66-0.25-13.68-5.93-14.33-13.71c-0.23-2.82-0.04-5.66-0.04-8.47
			c0-2.84-0.22-5.67,0.05-8.47c0.7-7.68,6.63-13.26,14.06-13.52c7.82-0.23,14.11,4.77,15.12,12.67
			C300.44,114.63,300.46,121.01,299.61,127.28z"/>
		<path d="M225.75,126.67c-0.56,7.52-7.12,13.32-14.71,13.23c-7.46-0.11-13.97-5.78-14.38-13.12c-0.33-6.03-0.34-12.11,0.02-18.14
			c0.43-7.34,6.96-12.92,14.45-12.95c7.52-0.02,13.97,5.55,14.6,12.85c0.25,3.07,0.04,6.18,0.04,9.27h0.02
			C225.78,120.76,225.96,123.74,225.75,126.67z"/>
	</g>
</g>
</svg>
