<?xml version="1.0" encoding="utf-8"?>
<!-- Generator: Adobe Illustrator 24.1.2, SVG Export Plug-In . SVG Version: 6.00 Build 0)  -->
<svg version="1.1" xmlns="http://www.w3.org/2000/svg" xmlns:xlink="http://www.w3.org/1999/xlink" x="0px" y="0px"
	 viewBox="0 0 1920 1080" style="enable-background:new 0 0 1920 1080;" xml:space="preserve">
<style type="text/css">
	.st0{display:none;}
	.st1{font-family:'Franchise-Regular';}
	.st2{font-size:606.7968px;}
	.st3{font-family:'HastagFreeTrial';}
	.st4{font-size:419.2343px;}
	.st5{fill:#FEFEFE;}
	.st6{fill:#464646;}
	.st7{fill:#6D6D6D;}
</style>
<g id="Camada_1" class="st0">
</g>
<g id="Camada_2">
	<text transform="matrix(1 0 0 1 76.6543 1000.9463)" class="st1 st2">Burguer</text>
	<text transform="matrix(1 0 0 1 76.6543 469.5625)" class="st3 st4">quero</text>
	<g>
		<path class="st5" d="M1333.73,243.44c2.16-0.04,2.56,1.83,3.33,3.17c3.61,6.3,9.1,9.21,16.28,9.17c1.65,0,3.28,0.02,4.94,0.02
			h456.01c1.81,0,3.61,0.02,5.42-0.02c10.67-0.35,17.56-7.1,17.58-17.81c0.02-22.32-3.44-44.18-9.78-65.56
			c-9.03-30.5-23.8-58.11-44.34-82.33c-37.59-44.27-85.04-71.64-142.59-80.92c-4.87-0.79-9.72-1.54-14.63-2.12
			c-1.63-0.18-3.83,0.29-4.16-2.34c3.33,2.05,7.18,1.23,10.75,1.74c79.35,11.24,138.69,51.92,177.96,121.53
			c18.62,33.01,27.39,68.99,28.21,106.9c0.35,15.51-6.39,22.34-21.82,22.34c-153.33,0-306.65-0.07-459.98,0.15
			C1345.8,257.39,1337.94,253.97,1333.73,243.44z"/>
		<path class="st5" d="M1837.05,310.71c-0.51-8.48-6.99-14.83-15.69-15.34c-1.81-0.09-3.61-0.07-5.42-0.07h-459.47
			c-1.48,0-2.95,0.04-4.43,0.02c-6.08-0.04-10.75,2.45-14.1,7.54c-1.04,1.56-1.74,3.7-4.21,3.7c1.54-0.73,1.41-2.45,2.14-3.66
			c3.24-5.44,7.76-8.84,14.19-9.34c2.12-0.15,4.25-0.2,6.39-0.2c153.22-0.02,306.41-0.02,459.63-0.02c3.28,0,6.59-0.15,9.78,0.77
			c8.31,2.38,13.82,10.73,12.8,19.26c-1.04,8.68-8.07,15.36-16.77,15.87c-1.96,0.13-3.94,0.09-5.93,0.09
			c-153.04,0-306.08-0.07-459.12,0.15c-11.15,0-19.04-3.37-23.12-14.04c2.31,0.07,2.78,2.12,3.61,3.59c3.13,5.51,8,8.02,14.13,8.53
			c2.14,0.18,4.28,0.11,6.41,0.11h456.5c2.8,0,5.6,0.11,8.37-0.29C1831.5,326.1,1837.54,319.04,1837.05,310.71z"/>
		<path class="st5" d="M1837.84,431.65c-5.33,42.33-41.71,75.94-84.33,77.94c-1.96,0.11-3.94,0.18-5.91,0.18
			c-107.51,0-215,0.07-322.52-0.02c-40.37-0.04-73.62-23.98-86.76-62.12c-1.87-5.49-3.09-11.17-4.61-16.77
			c3.11,0.66,2.64,3.5,3.06,5.51c3.26,15.25,9.67,28.91,19.88,40.79c14.3,16.64,32.39,26.42,53.94,30.08
			c5.02,0.86,10.09,1.12,15.2,1.12c107.16-0.04,214.34-0.02,321.5-0.02c47.36,0,85.98-35.17,89.75-82.37
			c1.15-14.21,0.55-28.58,0.11-42.88c-0.31-9.45-7.23-15.78-16.77-15.84c-23.69-0.13-47.36-0.02-71.02-0.04
			c-5.2,0-9.52,2.05-13.57,5.09c-17.34,13.05-34.71,26.02-52.07,39.05c-7.21,5.42-7.56,5.4-14.9-0.09
			c-17.12-12.8-34.24-25.56-51.26-38.52c-5.24-3.99-10.8-5.62-17.36-5.6c-81.53,0.11-163.04,0.11-244.58-0.02
			c-8.66,0-15.51,2.2-19.37,10.53c-0.46,1.01-1.08,2.12-2.56,1.92c3.88-10.49,11.5-14.17,22.52-14.13
			c81.2,0.24,162.41,0.18,243.61,0.04c7.27-0.02,13.35,1.98,19.11,6.39c17.87,13.64,36.01,26.95,53.88,40.61
			c2.93,2.25,4.65,1.96,7.38-0.13c18.31-13.9,36.78-27.61,55.11-41.47c4.78-3.61,9.92-5.4,15.95-5.38
			c22.37,0.13,44.71,0.02,67.08,0.07c13.4,0.02,20.54,7.01,20.38,20.3C1838.55,401.13,1839.76,416.42,1837.84,431.65z"/>
		<path d="M1514.09,140.18c0,3.28,0.2,6.59-0.04,9.85c-0.75,9.54-7.93,16.48-17.3,16.92c-9.21,0.44-17.14-6.04-18.38-15.62
			c-0.97-7.47-0.95-15.09-0.02-22.59c1.23-9.85,9.01-16.04,18.77-15.62c9.19,0.4,16.33,7.58,16.95,17.21
			c0.22,3.28,0.04,6.57,0.04,9.85C1514.09,140.18,1514.09,140.18,1514.09,140.18z"/>
		<path d="M1604.02,150.87c-0.68,9.17-8.68,16.24-17.94,16.13c-9.1-0.13-17.03-7.05-17.54-16c-0.4-7.36-0.42-14.76,0.02-22.12
			c0.53-8.95,8.48-15.76,17.63-15.8c9.17-0.02,17.03,6.77,17.81,15.67c0.31,3.75,0.04,7.54,0.04,11.3h0.02
			C1604.07,143.66,1604.29,147.3,1604.02,150.87z"/>
		<path d="M1694.1,151.61c-1.26,9.3-9.1,15.67-18.11,15.36c-9.34-0.31-16.68-7.23-17.47-16.73c-0.29-3.44-0.04-6.9-0.04-10.33
			c0-3.46-0.26-6.92,0.07-10.33c0.86-9.37,8.09-16.17,17.14-16.48c9.54-0.29,17.21,5.82,18.44,15.45
			C1695.12,136.19,1695.14,143.97,1694.1,151.61z"/>
		<path d="M1810.5,127.99c-19.7-34.91-44.44-62.55-74.23-82.84c0,0-46.67-31.75-103.74-38.69c-8.65-1.05-18.89-1.69-19.63-1.74
			c-31-1.92-56.63,0.42-71.83,1.86c-3.85,0.37-7.01,0.67-7.89,0.8c-97.88,14.83-176.79,90.55-195.17,187.55
			c-1.41,7.4-2.16,14.94-3.24,22.39c-0.13,0.9,0.31,2.05-1.04,2.42v4.94c0.53,0.48,0.53,1.08,0.53,1.67
			c-0.02,0.09-0.02,0.18-0.02,0.26c0,0.13,0.02,0.26,0.02,0.4c-0.2,1.19,0.42,2.49-0.53,3.59v12.83
			c4.21,10.53,12.08,13.95,23.18,13.95c153.33-0.22,306.65-0.15,459.98-0.15c15.43,0,22.17-6.83,21.82-22.34
			C1837.89,196.99,1829.12,161,1810.5,127.99z M1371.3,215.45c6.35-48.26,27.1-89.2,62.82-122.15c29.97-27.63,65.31-45,105.95-50.07
			c33.54-4.19,67.3-4.5,100.68,1.15c31.4,5.31,59.72,18.51,84.88,38.08c27.92,21.73,48.7,49.01,62.19,81.75
			c7.05,17.08,11.35,34.86,13.62,53.19c0.57,4.69-2.14,3.7-4.61,3.7h-211.06c-69.88,0-139.75-0.07-209.61,0.13
			C1371.15,221.27,1370.77,219.6,1371.3,215.45z"/>
		<path d="M1838.75,385.86c0.15-13.29-6.99-20.27-20.38-20.3c-22.37-0.04-44.71,0.07-67.08-0.07c-6.04-0.02-11.17,1.76-15.95,5.38
			c-18.33,13.86-36.8,27.57-55.11,41.47c-2.73,2.09-4.45,2.38-7.38,0.13c-17.87-13.66-36.01-26.97-53.88-40.61
			c-5.75-4.41-11.83-6.41-19.11-6.39c-81.2,0.13-162.41,0.2-243.61-0.04c-11.02-0.04-18.64,3.64-22.52,14.13v51.3
			c1.52,5.6,2.73,11.28,4.61,16.77c13.13,38.14,46.39,62.08,86.76,62.12c107.51,0.09,215,0.02,322.52,0.02
			c1.96,0,3.94-0.07,5.91-0.18c42.62-2.01,79-35.61,84.33-77.94C1839.76,416.42,1838.55,401.13,1838.75,385.86z M1800.54,434.62
			c-6.39,21.95-25.89,38.12-48.68,38.7c-24.64,0.64-49.32,0.31-73.97,0.33c-30.56,0.02-61.15,0-91.71,0
			c-53.28,0-106.54,0.04-159.8-0.02c-25.67-0.02-45.5-13.68-53.57-36.38c-3.9-11.02-2.69-22.41-2.93-33.69
			c-0.02-1.39,0.57-2.16,2.05-2.09c1.15,0.04,2.31,0,3.46,0c72.65,0,145.33,0.02,217.98-0.07c3.28,0,5.88,0.77,8.55,2.8
			c20.3,15.36,40.7,30.59,61.06,45.86c9.76,7.32,17.21,7.34,26.86,0.11c20.63-15.47,41.27-30.94,61.85-46.45
			c1.9-1.43,3.72-2.34,6.24-2.31c13.64,0.13,27.28,0.15,40.92,0c3.02-0.04,4.01,0.79,3.88,3.86
			C1802.34,415.05,1803.36,424.93,1800.54,434.62z"/>
		<path d="M1838.66,313.38c-1.04,8.68-8.07,15.36-16.77,15.87c-1.96,0.13-3.94,0.09-5.93,0.09c-153.04,0-306.08-0.07-459.12,0.15
			c-11.15,0-19.04-3.37-23.12-14.04v-8.88c1.54-0.73,1.41-2.45,2.14-3.66c3.24-5.44,7.76-8.84,14.19-9.34
			c2.12-0.15,4.25-0.2,6.39-0.2c153.22-0.02,306.41-0.02,459.63-0.02c3.28,0,6.59-0.15,9.78,0.77
			C1834.16,296.5,1839.67,304.85,1838.66,313.38z"/>
		<path class="st6" d="M1334.59,226.59c0.06,1.41,0.64,2.93-0.85,4.01c0-1.32,0-2.63,0-3.95
			C1333.99,226.25,1334.27,226.21,1334.59,226.59z"/>
		<path class="st7" d="M1334.59,226.59c-0.28,0.03-0.57,0.05-0.85,0.07c0-0.66,0-1.32,0-1.97
			C1334.87,224.95,1334.68,225.79,1334.59,226.59z"/>
		<path class="st5" d="M1514.09,140.18c0,3.28,0.2,6.59-0.04,9.85c-0.75,9.54-7.93,16.48-17.3,16.92
			c-9.21,0.44-17.14-6.04-18.38-15.62c-0.97-7.47-0.95-15.09-0.02-22.59c1.23-9.85,9.01-16.04,18.77-15.62
			c9.19,0.4,16.33,7.58,16.95,17.21c0.22,3.28,0.04,6.57,0.04,9.85C1514.09,140.18,1514.09,140.18,1514.09,140.18z"/>
		<path class="st5" d="M1604.02,150.87c-0.68,9.17-8.68,16.24-17.94,16.13c-9.1-0.13-17.03-7.05-17.54-16
			c-0.4-7.36-0.42-14.76,0.02-22.12c0.53-8.95,8.48-15.76,17.63-15.8c9.17-0.02,17.03,6.77,17.81,15.67
			c0.31,3.75,0.04,7.54,0.04,11.3h0.02C1604.07,143.66,1604.29,147.3,1604.02,150.87z"/>
		<path class="st5" d="M1694.1,151.61c-1.26,9.3-9.1,15.67-18.11,15.36c-9.34-0.31-16.68-7.23-17.47-16.73
			c-0.29-3.44-0.04-6.9-0.04-10.33c0-3.46-0.26-6.92,0.07-10.33c0.86-9.37,8.09-16.17,17.14-16.48c9.54-0.29,17.21,5.82,18.44,15.45
			C1695.12,136.19,1695.14,143.97,1694.1,151.61z"/>
		<path d="M1514.09,140.18c0,3.28,0.2,6.59-0.04,9.85c-0.75,9.54-7.93,16.48-17.3,16.92c-9.21,0.44-17.14-6.04-18.38-15.62
			c-0.97-7.47-0.95-15.09-0.02-22.59c1.23-9.85,9.01-16.04,18.77-15.62c9.19,0.4,16.33,7.58,16.95,17.21
			c0.22,3.28,0.04,6.57,0.04,9.85C1514.09,140.18,1514.09,140.18,1514.09,140.18z"/>
		<path d="M1694.1,151.61c-1.26,9.3-9.1,15.67-18.11,15.36c-9.34-0.31-16.68-7.23-17.47-16.73c-0.29-3.44-0.04-6.9-0.04-10.33
			c0-3.46-0.26-6.92,0.07-10.33c0.86-9.37,8.09-16.17,17.14-16.48c9.54-0.29,17.21,5.82,18.44,15.45
			C1695.12,136.19,1695.14,143.97,1694.1,151.61z"/>
		<path d="M1604.02,150.87c-0.68,9.17-8.68,16.24-17.94,16.13c-9.1-0.13-17.03-7.05-17.54-16c-0.4-7.36-0.42-14.76,0.02-22.12
			c0.53-8.95,8.48-15.76,17.63-15.8c9.17-0.02,17.03,6.77,17.81,15.67c0.31,3.75,0.04,7.54,0.04,11.3h0.02
			C1604.07,143.66,1604.29,147.3,1604.02,150.87z"/>
	</g>
</g>
</svg>
